# xmcd
# 
# Track frame offsets:
#     150
#     23745
#     49687
#     72232
#     96992
#     123390
#     145202
#     166787
#     191915
#     212795
#     238385
#     265025
# 
# Disc length: 3871
# 
# Revision: 1
# Processed by: cddbd v1.5.2PL0 Copyright (c) Steve Scherf et al.
# Submitted via: fre:ac v1.0.17
# 
DISCID=b00f1d0c
DTITLE=Niels Lan Doky - Scandinavian Reminiscence
DYEAR=2005
DGENRE=Jazz
TTITLE0=norwegian wood
TTITLE1=reminiscence
TTITLE2=swedish suite(dear old stockholm)
TTITLE3=chateau en suede
TTITLE4=invisible friends
TTITLE5=valse triste
TTITLE6=big foot
TTITLE7=du
TTITLE8=tranquility in the woods(I skovens dybe stille ro)
TTITLE9=hit man
TTITLE10=hills and valleys(no ser eg atter slike fjell og dalar)
TTITLE11=that's the way it goes
EXTD=YEAR: 2005
EXTT0=
EXTT1=
EXTT2=
EXTT3=
EXTT4=
EXTT5=
EXTT6=
EXTT7=
EXTT8=
EXTT9=
EXTT10=
EXTT11=
PLAYORDER=
